PathFileType	4	(X/Y/Z)	RBDS027static.trc
DataRate	CameraRate	NumFrames	NumMarkers	Units	OrigDataRate	OrigDataStartFrame	OrigNumFrames
150.000000	150.000000	4	48	mm	150.000000	18	150
Frame#	Time	L.Ankle			L.Ankle.Medial			L.ASIS			L.GTR			L.Heel.Bottom			L.Heel.Lateral			L.Heel.Top			L.HF			L.Iliac.Crest			L.Knee			L.Knee.Medial			L.MT1			L.MT2			L.MT5			L.PSIS			L.Shank.Bottom.Lateral			L.Shank.Bottom.Medial			L.Shank.Top.Lateral			L.Shank.Top.Medial			L.Thigh.Bottom.Lateral			L.Thigh.Bottom.Medial			L.Thigh.Top.Lateral			L.Thigh.Top.Medial			L.TT			R.Ankle			R.Ankle.Medial			R.ASIS			R.GTR			R.Heel.Bottom			R.Heel.Lateral			R.Heel.Top			R.HF			R.Iliac.Crest			R.Knee			R.Knee.Medial			R.MT1			R.MT2			R.MT5			R.PSIS			R.Shank.Bottom.Lateral			R.Shank.Bottom.Medial			R.Shank.Top.Lateral			R.Shank.Top.Medial			R.Thigh.Bottom.Lateral			R.Thigh.Bottom.Medial			R.Thigh.Top.Lateral			R.Thigh.Top.Medial			R.TT			
		X1	Y1	Z1	X2	Y2	Z2	X3	Y3	Z3	X4	Y4	Z4	X5	Y5	Z5	X6	Y6	Z6	X7	Y7	Z7	X8	Y8	Z8	X9	Y9	Z9	X10	Y10	Z10	X11	Y11	Z11	X12	Y12	Z12	X13	Y13	Z13	X14	Y14	Z14	X15	Y15	Z15	X16	Y16	Z16	X17	Y17	Z17	X18	Y18	Z18	X19	Y19	Z19	X20	Y20	Z20	X21	Y21	Z21	X22	Y22	Z22	X23	Y23	Z23	X24	Y24	Z24	X25	Y25	Z25	X26	Y26	Z26	X27	Y27	Z27	X28	Y28	Z28	X29	Y29	Z29	X30	Y30	Z30	X31	Y31	Z31	X32	Y32	Z32	X33	Y33	Z33	X34	Y34	Z34	X35	Y35	Z35	X36	Y36	Z36	X37	Y37	Z37	X38	Y38	Z38	X39	Y39	Z39	X40	Y40	Z40	X41	Y41	Z41	X42	Y42	Z42	X43	Y43	Z43	X44	Y44	Z44	X45	Y45	Z45	X46	Y46	Z46	X47	Y47	Z47	X48	Y48	Z48	

19	0.12	711.5728149414063	96.27841949462891	1046.577758789063	728.4512329101563	100.8547058105469	1125.552490234375	816.0862426757813	920.3383178710938	1083.649169921875	746.7870483398438	834.8888549804688	1043.64306640625	637.2667236328125	33.49961471557617	1084.019165039063	669.4644775390625	55.54474258422852	1041.019653320313	649.6412963867188	82.14203643798828	1086.571044921875	702.0546264648438	418.2062683105469	1036.60009765625	759.9141845703125	993.0670166015625	1060.056640625	714.7831420898438	475.3155517578125	1046.147094726563	705.7371826171875	463.1278686523438	1167.137817382813	853.3643188476563	52.55260848999023	1128.124755859375	860.9907836914063	64.9097900390625	1082.498779296875	821.7962646484375	48.39566802978516	1017.521545410156	662.6698608398438	953.420654296875	1178.392700195313	695.8448486328125	161.2296752929688	1035.509765625	660.1962280273438	155.6536712646484	1077.809692382813	671.9779052734375	237.9073333740234	1027.631713867188	641.3988647460938	234.0404968261719	1072.075439453125	706.2825927734375	587.5347900390625	1027.313110351563	654.07666015625	586.84423828125	1076.375610351563	703.224853515625	697.6061401367188	1029.566772460938	656.1414794921875	697.3829345703125	1079.254760742188	761.1392211914063	397.1956787109375	1087.456420898438	709.0776977539063	97.13197326660156	1405.223510742188	732.897216796875	111.3169708251953	1328.45947265625	832.8743896484375	928.6842651367188	1351.4638671875	763.9998168945313	842.17138671875	1403.125366210938	640.052734375	37.73185348510742	1369.709594726563	672.7039184570313	55.31353759765625	1410.870239257813	649.2601928710938	82.91210174560547	1369.677734375	726.9229125976563	427.879638671875	1418.307250976563	777.9699096679688	1006.490783691406	1373.055908203125	726.5120849609375	488.6986694335938	1409.682495117188	721.7407836914063	471.3141479492188	1289.814575195313	852.9730224609375	51.53830337524414	1316.731201171875	860.406005859375	67.53913116455078	1366.861572265625	826.2166137695313	47.52513122558594	1432.617797851563	671.5604858398438	955.6328125	1276.431396484375	696.951171875	160.2325592041016	1412.765502929688	663.9833374023438	166.6113128662109	1374.057983398438	688.176025390625	243.0363922119141	1431.22705078125	653.5213012695313	244.8971252441406	1390.0146484375	732.4069213867188	574.4207763671875	1425.059326171875	672.5825805664063	575.6280517578125	1381.777221679688	729.2037963867188	684.2184448242188	1426.335083007813	673.4996337890625	685.63427734375	1384.293090820313	779.776611328125	407.6653442382813	1367.119750976563	
20	0.1266666666666667	711.5697631835938	96.27114105224609	1046.59326171875	728.4517211914063	100.8546905517578	1125.560180664063	816.0256958007813	920.325927734375	1083.7041015625	746.7172241210938	834.8881225585938	1043.669677734375	637.2791137695313	33.49189376831055	1084.02783203125	669.4632568359375	55.54887771606445	1041.020751953125	649.640380859375	82.13771057128906	1086.571899414063	702.0213623046875	418.2115478515625	1036.633178710938	759.8649291992188	993.0610961914063	1060.105712890625	714.7615356445313	475.3056640625	1046.186279296875	705.6926879882813	463.1456298828125	1167.342407226563	853.36865234375	52.5449333190918	1128.134887695313	861.00048828125	64.90822601318359	1082.502807617188	821.7933959960938	48.39738464355469	1017.522766113281	662.5999145507813	953.4122924804688	1178.462646484375	695.822021484375	161.2246704101563	1035.518676757813	660.1866455078125	155.6487426757813	1077.837768554688	671.958251953125	237.9022674560547	1027.65966796875	641.3837890625	234.0275573730469	1072.109008789063	706.2282104492188	587.5331420898438	1027.357421875	654.0218505859375	586.8384399414063	1076.435424804688	703.175048828125	697.5991821289063	1029.6240234375	656.0955810546875	697.3675537109375	1079.31640625	761.1030883789063	397.1963806152344	1087.48486328125	709.0747680664063	97.13265228271484	1405.22900390625	732.8907470703125	111.3075866699219	1328.464721679688	832.84765625	928.6824951171875	1351.52294921875	763.9751586914063	842.1700439453125	1403.186645507813	640.0575561523438	37.71865844726563	1369.716186523438	672.6948852539063	55.31246566772461	1410.8701171875	649.2655639648438	82.90696716308594	1369.673461914063	726.9219360351563	427.977294921875	1418.45361328125	777.9343872070313	1006.492797851563	1373.09765625	726.5130615234375	488.6293334960938	1409.60400390625	721.7086791992188	471.2101745605469	1289.746215820313	852.9778442382813	51.5323371887207	1316.737060546875	860.4150390625	67.53512573242188	1366.867309570313	826.22021484375	47.50892639160156	1432.629516601563	671.5044555664063	955.6356811523438	1276.50439453125	696.953125	160.2336120605469	1412.77783203125	663.9771118164063	166.6098327636719	1374.080078125	688.1693725585938	243.0315856933594	1431.24658203125	653.5175170898438	244.8829345703125	1390.031616210938	732.3926391601563	574.4231567382813	1425.097290039063	672.5740966796875	575.6168823242188	1381.845336914063	729.1906127929688	684.211669921875	1426.380004882813	673.49169921875	685.6220092773438	1384.34912109375	779.760009765625	407.6617431640625	1367.137451171875	
21	0.1333333333333333	711.55712890625	96.27945709228516	1046.585571289063	728.441162109375	100.8649520874023	1125.56005859375	815.9623413085938	920.3284912109375	1083.758544921875	746.6648559570313	834.877197265625	1043.727172851563	637.2720947265625	33.49398803710938	1084.026977539063	669.4579467773438	55.55332946777344	1041.015869140625	649.642333984375	82.12908172607422	1086.57177734375	701.9945068359375	418.2099609375	1036.659057617188	759.8041381835938	993.0350952148438	1060.171020507813	714.734130859375	475.3102111816406	1046.23046875	705.6669311523438	463.1371765136719	1167.3740234375	853.353271484375	52.54862213134766	1128.126586914063	860.9866943359375	64.90912628173828	1082.507202148438	821.7935180664063	48.39811325073242	1017.519287109375	662.5406494140625	953.3985595703125	1178.538940429688	695.8101196289063	161.239990234375	1035.528076171875	660.1845092773438	155.6435699462891	1077.845947265625	671.9423828125	237.9004211425781	1027.678344726563	641.3773803710938	234.0239410400391	1072.127075195313	706.1820068359375	587.5322265625	1027.400146484375	653.9743041992188	586.8117065429688	1076.506591796875	703.1305541992188	697.5875854492188	1029.678955078125	656.0576171875	697.3558959960938	1079.37158203125	761.0689086914063	397.20849609375	1087.515258789063	709.0712280273438	97.12891387939453	1405.232788085938	732.8897705078125	111.305305480957	1328.458862304688	832.8165893554688	928.6943359375	1351.558471679688	763.9583740234375	842.1747436523438	1403.235229492188	640.0562133789063	37.72369766235352	1369.696655273438	672.7008666992188	55.30080795288086	1410.883056640625	649.2543334960938	82.90884399414063	1369.681518554688	726.8922119140625	427.86474609375	1418.3564453125	777.9022216796875	1006.500671386719	1373.149047851563	726.48193359375	488.6174011230469	1409.657470703125	721.6957397460938	471.2106628417969	1289.7939453125	852.9782104492188	51.53352737426758	1316.742431640625	860.4024047851563	67.54019927978516	1366.869384765625	826.2265014648438	47.51529312133789	1432.627563476563	671.4656372070313	955.62841796875	1276.571044921875	696.9480590820313	160.2251129150391	1412.778686523438	663.9705200195313	166.5962829589844	1374.090942382813	688.1507568359375	243.0581512451172	1431.252197265625	653.50732421875	244.8783416748047	1390.0498046875	732.3900756835938	574.41943359375	1425.138427734375	672.5639038085938	575.6127319335938	1381.90625	729.1798095703125	684.2096557617188	1426.423583984375	673.476318359375	685.6201171875	1384.405639648438	779.74560546875	407.6612854003906	1367.16845703125	
22	0.14	711.5597534179688	96.27521514892578	1046.584594726563	728.4343872070313	100.8714752197266	1125.55859375	815.9003295898438	920.3265991210938	1083.8115234375	746.5787353515625	834.8885498046875	1043.775268554688	637.267578125	33.50200271606445	1084.026489257813	669.4574584960938	55.55124282836914	1041.019409179688	649.6399536132813	82.13544464111328	1086.57373046875	701.9660034179688	418.2196960449219	1036.703002929688	759.74658203125	993.0333862304688	1060.221923828125	714.69775390625	475.3060607910156	1046.258178710938	705.6599731445313	463.133056640625	1167.403076171875	853.3623657226563	52.54828643798828	1128.13671875	860.9887084960938	64.91835021972656	1082.509765625	821.7908325195313	48.39439010620117	1017.538757324219	662.4736938476563	953.3988647460938	1178.599731445313	695.7980346679688	161.2489776611328	1035.531860351563	660.1749267578125	155.6428985595703	1077.862915039063	671.9180297851563	237.9024505615234	1027.69775390625	641.363037109375	234.0259399414063	1072.150390625	706.1431884765625	587.5322265625	1027.441650390625	653.9307861328125	586.8034057617188	1076.562622070313	703.057861328125	697.7426147460938	1029.805541992188	656.01611328125	697.3583984375	1079.44287109375	761.045654296875	397.2087707519531	1087.544799804688	709.068359375	97.12502288818359	1405.229248046875	732.8884887695313	111.313346862793	1328.461547851563	832.7789916992188	928.6985473632813	1351.609619140625	763.927978515625	842.1824951171875	1403.292358398438	640.0521850585938	37.72768020629883	1369.718994140625	672.7029418945313	55.30959701538086	1410.875244140625	649.2626953125	82.90777587890625	1369.686279296875	726.876953125	427.8571166992188	1418.37890625	777.8761596679688	1006.502075195313	1373.193481445313	726.4773559570313	488.6141357421875	1409.674438476563	721.6786499023438	471.2066040039063	1289.859741210938	852.9756469726563	51.5298957824707	1316.74365234375	860.4102172851563	67.53416442871094	1366.876831054688	826.2212524414063	47.52117538452148	1432.6220703125	671.4060668945313	955.6278686523438	1276.639770507813	696.9451293945313	160.2204895019531	1412.788696289063	663.9708862304688	166.5947570800781	1374.100708007813	688.1597290039063	243.0109252929688	1431.270874023438	653.49609375	244.8763885498047	1390.078491210938	732.3768310546875	574.4091186523438	1425.177734375	672.5419921875	575.6123046875	1381.9580078125	729.16845703125	684.205810546875	1426.4736328125	673.4560546875	685.6206665039063	1384.470703125	779.7257690429688	407.6682434082031	1367.196899414063	
